<?xml version="1.0" encoding="utf-8"?>
<!-- Generator: Adobe Illustrator 15.0.0, SVG Export Plug-In . SVG Version: 6.00 Build 0)  -->
<!DOCTYPE svg PUBLIC "-//W3C//DTD SVG 1.1//EN" "http://www.w3.org/Graphics/SVG/1.1/DTD/svg11.dtd">
<svg version="1.1" xmlns="http://www.w3.org/2000/svg" xmlns:xlink="http://www.w3.org/1999/xlink" x="0px" y="0px" width="144px"
	 height="51px" viewBox="0 0 144 51" enable-background="new 0 0 144 51" xml:space="preserve">
<g id="Layer_1">
	<g>
		<path d="M0.291,14.344h0.582v1.425c0,0.736,0.189,1.42,0.567,2.049c0.378,0.63,0.891,1.188,1.541,1.671
			c0.649,0.485,1.41,0.863,2.282,1.134c0.872,0.271,1.802,0.407,2.791,0.407c0.853,0,1.667-0.106,2.442-0.32
			c0.775-0.213,1.473-0.504,2.093-0.872c0.62-0.368,1.143-0.804,1.57-1.308c0.426-0.504,0.727-1.056,0.901-1.657L3.721,11.146
			c-0.969-0.523-1.734-1.192-2.296-2.006C0.862,8.327,0.581,7.436,0.581,6.466c0-0.794,0.199-1.541,0.596-2.238
			C1.574,3.53,2.112,2.925,2.791,2.411c0.678-0.513,1.473-0.92,2.384-1.221c0.911-0.3,1.879-0.451,2.907-0.451
			c0.775,0,1.521,0.087,2.238,0.262c0.717,0.175,1.376,0.422,1.977,0.741c0.601,0.32,1.134,0.698,1.599,1.134
			c0.465,0.436,0.843,0.916,1.134,1.439V0.972h0.582v5.814h-0.582V6.088c-0.078-0.601-0.32-1.187-0.727-1.759
			c-0.407-0.571-0.93-1.08-1.57-1.526C12.093,2.358,11.366,2,10.552,1.728S8.885,1.321,7.994,1.321
			c-0.737,0-1.439,0.083-2.107,0.247C5.218,1.733,4.607,1.96,4.055,2.251c-0.552,0.291-1.042,0.64-1.468,1.047
			C2.161,3.705,1.831,4.151,1.599,4.635l11.337,5.698c0.949,0.679,1.686,1.473,2.209,2.384c0.523,0.911,0.746,1.919,0.668,3.023
			c0,0.795-0.203,1.546-0.61,2.253c-0.407,0.708-0.964,1.328-1.671,1.86c-0.708,0.534-1.531,0.955-2.471,1.265
			c-0.94,0.31-1.943,0.465-3.009,0.465c-0.814,0-1.589-0.092-2.326-0.276c-0.737-0.184-1.415-0.436-2.035-0.756
			c-0.621-0.32-1.173-0.702-1.657-1.148s-0.872-0.931-1.163-1.454v3.372H0.291V14.344z"/>
		<path d="M31.25,0.972h15.698v4.07h-0.581V1.553h-5.233V20.74h2.326v0.582h-8.721V20.74h2.326V1.553h-5.232v3.489H31.25V0.972z"/>
		<path d="M76.745,0.972h4.826v0.581h-2.064l-5.436,8.867v10.32h2.325v0.582h-8.721V20.74h2.326v-9.448l-5.582-9.739h-2.064V0.972
			h9.012v0.581h-2.238l4.681,8.111l4.971-8.111h-2.035V0.972z"/>
		<path d="M96.979,20.74h2.325V1.553h-2.325V0.972h8.721v0.581h-2.325V20.74h8.721v-5.232h0.582v5.814H96.979V20.74z"/>
		<path d="M128.083,20.74h2.325V1.553h-2.325V0.972h15.698v5.814h-0.582V1.553h-8.721v9.303h5.232V8.094h0.582v6.396h-0.582v-3.052
			h-5.232v9.302h8.721v-5.232h0.582v5.814h-15.698V20.74z"/>
	</g>
	<g>
	</g>
	<g>
	</g>
</g>
<g id="c">
	<g>
		<path d="M17.363,34.451c-0.814-1.376-1.88-2.476-3.198-3.3c-1.318-0.823-2.771-1.235-4.36-1.235c-0.93,0-1.808,0.146-2.631,0.436
			C6.35,30.643,5.58,31.04,4.863,31.543v16.512c0.717,0.523,1.487,0.926,2.311,1.207c0.823,0.281,1.701,0.421,2.631,0.421
			c0.891,0,1.749-0.135,2.573-0.406c0.823-0.271,1.589-0.654,2.296-1.148s1.337-1.091,1.89-1.788s1.013-1.463,1.381-2.297h0.61
			c-0.368,0.911-0.848,1.75-1.439,2.515c-0.591,0.766-1.265,1.425-2.021,1.977c-0.755,0.553-1.584,0.979-2.485,1.279
			c-0.901,0.301-1.836,0.451-2.805,0.451c-1.318,0-2.558-0.276-3.721-0.829c-1.163-0.552-2.18-1.298-3.052-2.238
			c-0.872-0.939-1.56-2.044-2.064-3.313c-0.504-1.27-0.756-2.631-0.756-4.085c0-1.453,0.251-2.815,0.756-4.084
			c0.504-1.27,1.192-2.374,2.064-3.314c0.872-0.939,1.89-1.686,3.052-2.238c1.163-0.552,2.403-0.829,3.721-0.829
			c1.531,0,2.951,0.369,4.259,1.105c1.308,0.737,2.408,1.725,3.299,2.965v-3.779h0.582v5.843h-0.582V34.451z"/>
		<path d="M21.462,39.8c0-1.453,0.251-2.815,0.756-4.084c0.504-1.27,1.192-2.374,2.064-3.314c0.872-0.939,1.89-1.686,3.052-2.238
			c1.163-0.552,2.403-0.829,3.721-0.829c1.318,0,2.558,0.276,3.721,0.829c1.163,0.552,2.18,1.299,3.052,2.238
			c0.872,0.94,1.56,2.045,2.064,3.314c0.504,1.27,0.756,2.631,0.756,4.084c0,1.454-0.252,2.815-0.756,4.085
			c-0.504,1.27-1.192,2.374-2.064,3.313c-0.872,0.94-1.89,1.687-3.052,2.238c-1.163,0.553-2.403,0.829-3.721,0.829
			c-1.318,0-2.558-0.276-3.721-0.829c-1.163-0.552-2.18-1.298-3.052-2.238c-0.872-0.939-1.56-2.044-2.064-3.313
			C21.713,42.615,21.462,41.254,21.462,39.8z M31.055,29.916c-0.93,0-1.808,0.146-2.631,0.436c-0.824,0.291-1.594,0.688-2.311,1.192
			v16.512c0.717,0.523,1.487,0.926,2.311,1.207c0.823,0.281,1.701,0.421,2.631,0.421s1.807-0.14,2.631-0.421
			c0.823-0.281,1.594-0.684,2.311-1.207V31.543c-0.717-0.504-1.488-0.901-2.311-1.192C32.862,30.061,31.985,29.916,31.055,29.916z"
			/>
		<path d="M43.555,49.394h2.326V30.206h-2.326v-0.581h6.018l10.843,19.303V30.206H58.09v-0.581h4.942v0.581h-2.035v19.769H56.87
			L46.462,31.398v17.996h2.325v0.581h-5.232V49.394z"/>
		<path d="M65.939,49.394h2.326V30.206h-2.326v-0.581h6.018L82.8,48.928V30.206h-2.325v-0.581h4.941v0.581h-2.035v19.769h-4.128
			L68.846,31.398v17.996h2.325v0.581h-5.232V49.394z"/>
		<path d="M88.322,49.394h2.325V30.206h-2.325v-0.581h15.698v5.814h-0.582v-5.233h-8.721v9.304h5.232v-2.762h0.582v6.396H99.95
			v-3.053h-5.232v9.303h8.721V44.16h0.582v5.814H88.322V49.394z"/>
		<path d="M124.079,34.451c-0.813-1.376-1.88-2.476-3.197-3.3c-1.318-0.823-2.772-1.235-4.361-1.235
			c-0.93,0-1.807,0.146-2.631,0.436c-0.823,0.291-1.594,0.688-2.311,1.192v16.512c0.717,0.523,1.487,0.926,2.311,1.207
			c0.824,0.281,1.701,0.421,2.631,0.421c0.892,0,1.749-0.135,2.573-0.406c0.823-0.271,1.589-0.654,2.297-1.148
			c0.707-0.494,1.337-1.091,1.89-1.788c0.552-0.697,1.012-1.463,1.381-2.297h0.61c-0.369,0.911-0.849,1.75-1.439,2.515
			c-0.591,0.766-1.265,1.425-2.021,1.977c-0.756,0.553-1.584,0.979-2.485,1.279c-0.901,0.301-1.836,0.451-2.806,0.451
			c-1.317,0-2.558-0.276-3.721-0.829c-1.163-0.552-2.18-1.298-3.053-2.238c-0.872-0.939-1.56-2.044-2.063-3.313
			s-0.756-2.631-0.756-4.085c0-1.453,0.252-2.815,0.756-4.084s1.191-2.374,2.063-3.314c0.873-0.939,1.89-1.686,3.053-2.238
			s2.403-0.829,3.721-0.829c1.531,0,2.951,0.369,4.259,1.105c1.309,0.737,2.408,1.725,3.3,2.965v-3.779h0.582v5.843h-0.582V34.451z"
			/>
		<path d="M128.178,29.625h15.698v4.07h-0.582v-3.489h-5.232v19.188h2.326v0.581h-8.722v-0.581h2.326V30.206h-5.233v3.489h-0.581
			V29.625z"/>
	</g>
</g>
</svg>
